{
    "asset" : {
        "generator" : "Khronos glTF Blender I/O v3.2.43",
        "version" : "2.0"
    },
    "scene" : 0,
    "scenes" : [
        {
            "name" : "Scene",
            "nodes" : [
                6,
                7
            ]
        }
    ],
    "nodes" : [
        {
            "mesh" : 0,
            "name" : "SM_Deck"
        },
        {
            "children" : [
                0
            ],
            "name" : "Deck",
            "translation" : [
                0,
                0.16040436923503876,
                0
            ]
        },
        {
            "mesh" : 1,
            "name" : "SM_Wheels_Front"
        },
        {
            "children" : [
                2
            ],
            "name" : "Wheels_Front",
            "translation" : [
                -0.2854434847831726,
                0.13948091864585876,
                0
            ]
        },
        {
            "mesh" : 2,
            "name" : "SM_Wheels_Rear"
        },
        {
            "children" : [
                4
            ],
            "name" : "Wheels_Rear",
            "translation" : [
                0.28517693281173706,
                0.13948087394237518,
                0
            ]
        },
        {
            "children" : [
                1,
                3,
                5
            ],
            "name" : "Carriage",
            "translation" : [
                0,
                0.05057381093502045,
                0
            ]
        },
        {
            "mesh" : 3,
            "name" : "SM_TrainTrack",
            "translation" : [
                0.5,
                0,
                0
            ]
        }
    ],
    "animations" : [
        {
            "channels" : [
                {
                    "sampler" : 0,
                    "target" : {
                        "node" : 6,
                        "path" : "translation"
                    }
                }
            ],
            "name" : "Travel",
            "samplers" : [
                {
                    "input" : 21,
                    "interpolation" : "LINEAR",
                    "output" : 22
                }
            ]
        },
        {
            "channels" : [
                {
                    "sampler" : 0,
                    "target" : {
                        "node" : 0,
                        "path" : "translation"
                    }
                },
                {
                    "sampler" : 1,
                    "target" : {
                        "node" : 0,
                        "path" : "rotation"
                    }
                }
            ],
            "name" : "CarriageRattle",
            "samplers" : [
                {
                    "input" : 23,
                    "interpolation" : "LINEAR",
                    "output" : 24
                },
                {
                    "input" : 23,
                    "interpolation" : "LINEAR",
                    "output" : 25
                }
            ]
        }
    ],
    "materials" : [
        {
            "doubleSided" : true,
            "name" : "Carriage",
            "normalTexture" : {
                "index" : 0
            },
            "occlusionTexture" : {
                "index" : 1
            },
            "pbrMetallicRoughness" : {
                "baseColorTexture" : {
                    "index" : 2
                },
                "metallicRoughnessTexture" : {
                    "index" : 1
                }
            }
        },
        {
            "doubleSided" : true,
            "name" : "TrainTracks",
            "normalTexture" : {
                "index" : 3
            },
            "occlusionTexture" : {
                "index" : 4
            },
            "pbrMetallicRoughness" : {
                "baseColorTexture" : {
                    "index" : 5
                },
                "metallicRoughnessTexture" : {
                    "index" : 4
                }
            }
        }
    ],
    "meshes" : [
        {
            "name" : "Mesh.004",
            "primitives" : [
                {
                    "attributes" : {
                        "POSITION" : 0,
                        "NORMAL" : 1,
                        "TEXCOORD_0" : 2,
                        "COLOR_0" : 3
                    },
                    "indices" : 4,
                    "material" : 0
                }
            ]
        },
        {
            "name" : "Mesh.006",
            "primitives" : [
                {
                    "attributes" : {
                        "POSITION" : 5,
                        "NORMAL" : 6,
                        "TEXCOORD_0" : 7,
                        "COLOR_0" : 8
                    },
                    "indices" : 9,
                    "material" : 0
                }
            ]
        },
        {
            "name" : "Mesh.005",
            "primitives" : [
                {
                    "attributes" : {
                        "POSITION" : 10,
                        "NORMAL" : 11,
                        "TEXCOORD_0" : 12,
                        "COLOR_0" : 13
                    },
                    "indices" : 14,
                    "material" : 0
                }
            ]
        },
        {
            "name" : "Mesh.010",
            "primitives" : [
                {
                    "attributes" : {
                        "POSITION" : 15,
                        "NORMAL" : 16,
                        "TEXCOORD_0" : 17,
                        "TEXCOORD_1" : 18,
                        "TEXCOORD_2" : 19
                    },
                    "indices" : 20,
                    "material" : 1
                }
            ]
        }
    ],
    "textures" : [
        {
            "sampler" : 0,
            "source" : 0
        },
        {
            "sampler" : 0,
            "source" : 1
        },
        {
            "sampler" : 0,
            "source" : 2
        },
        {
            "sampler" : 0,
            "source" : 3
        },
        {
            "sampler" : 0,
            "source" : 4
        },
        {
            "sampler" : 0,
            "source" : 5
        }
    ],
    "images" : [
        {
            "mimeType" : "image/png",
            "name" : "T_Carriage_N",
            "uri" : "T_Carriage_N.png"
        },
        {
            "mimeType" : "image/png",
            "name" : "T_Carriage_ORM",
            "uri" : "T_Carriage_ORM.png"
        },
        {
            "mimeType" : "image/png",
            "name" : "T_Carriage_D",
            "uri" : "T_Carriage_D.png"
        },
        {
            "mimeType" : "image/png",
            "name" : "T_TrainTracks_N",
            "uri" : "T_TrainTracks_N.png"
        },
        {
            "mimeType" : "image/png",
            "name" : "T_TrainTracks_ORM",
            "uri" : "T_TrainTracks_ORM.png"
        },
        {
            "mimeType" : "image/png",
            "name" : "T_TrainTracks_D",
            "uri" : "T_TrainTracks_D.png"
        }
    ],
    "accessors" : [
        {
            "bufferView" : 0,
            "componentType" : 5126,
            "count" : 6183,
            "max" : [
                0.5442027449607849,
                0.12384872138500214,
                0.24399176239967346
            ],
            "min" : [
                -0.5442027449607849,
                -0.04995151609182358,
                -0.24399176239967346
            ],
            "type" : "VEC3"
        },
        {
            "bufferView" : 1,
            "componentType" : 5126,
            "count" : 6183,
            "type" : "VEC3"
        },
        {
            "bufferView" : 2,
            "componentType" : 5126,
            "count" : 6183,
            "type" : "VEC2"
        },
        {
            "bufferView" : 3,
            "componentType" : 5123,
            "count" : 6183,
            "normalized" : true,
            "type" : "VEC4"
        },
        {
            "bufferView" : 4,
            "componentType" : 5123,
            "count" : 24216,
            "type" : "SCALAR"
        },
        {
            "bufferView" : 5,
            "componentType" : 5126,
            "count" : 4686,
            "max" : [
                0.14132273197174072,
                0.1413211226463318,
                0.17705929279327393
            ],
            "min" : [
                -0.14132265746593475,
                -0.1413211077451706,
                -0.1772395521402359
            ],
            "type" : "VEC3"
        },
        {
            "bufferView" : 6,
            "componentType" : 5126,
            "count" : 4686,
            "type" : "VEC3"
        },
        {
            "bufferView" : 7,
            "componentType" : 5126,
            "count" : 4686,
            "type" : "VEC2"
        },
        {
            "bufferView" : 8,
            "componentType" : 5123,
            "count" : 4686,
            "normalized" : true,
            "type" : "VEC4"
        },
        {
            "bufferView" : 9,
            "componentType" : 5123,
            "count" : 15228,
            "type" : "SCALAR"
        },
        {
            "bufferView" : 10,
            "componentType" : 5126,
            "count" : 4686,
            "max" : [
                0.14130166172981262,
                0.1410306990146637,
                0.17705905437469482
            ],
            "min" : [
                -0.14130109548568726,
                -0.14103065431118011,
                -0.17713898420333862
            ],
            "type" : "VEC3"
        },
        {
            "bufferView" : 11,
            "componentType" : 5126,
            "count" : 4686,
            "type" : "VEC3"
        },
        {
            "bufferView" : 12,
            "componentType" : 5126,
            "count" : 4686,
            "type" : "VEC2"
        },
        {
            "bufferView" : 13,
            "componentType" : 5123,
            "count" : 4686,
            "normalized" : true,
            "type" : "VEC4"
        },
        {
            "bufferView" : 14,
            "componentType" : 5123,
            "count" : 15228,
            "type" : "SCALAR"
        },
        {
            "bufferView" : 15,
            "componentType" : 5126,
            "count" : 2436,
            "max" : [
                3.5762786865234375e-07,
                0.06609450280666351,
                0.2518497109413147
            ],
            "min" : [
                -3.4667093753814697,
                -5.21540641784668e-07,
                -0.2612520754337311
            ],
            "type" : "VEC3"
        },
        {
            "bufferView" : 16,
            "componentType" : 5126,
            "count" : 2436,
            "type" : "VEC3"
        },
        {
            "bufferView" : 17,
            "componentType" : 5126,
            "count" : 2436,
            "type" : "VEC2"
        },
        {
            "bufferView" : 18,
            "componentType" : 5126,
            "count" : 2436,
            "type" : "VEC2"
        },
        {
            "bufferView" : 19,
            "componentType" : 5126,
            "count" : 2436,
            "type" : "VEC2"
        },
        {
            "bufferView" : 20,
            "componentType" : 5123,
            "count" : 4968,
            "type" : "SCALAR"
        },
        {
            "bufferView" : 21,
            "componentType" : 5126,
            "count" : 200,
            "max" : [
                6.666666666666667
            ],
            "min" : [
                0.03333333333333333
            ],
            "type" : "SCALAR"
        },
        {
            "bufferView" : 22,
            "componentType" : 5126,
            "count" : 200,
            "type" : "VEC3"
        },
        {
            "bufferView" : 23,
            "componentType" : 5126,
            "count" : 40,
            "max" : [
                1.3333333333333333
            ],
            "min" : [
                0.03333333333333333
            ],
            "type" : "SCALAR"
        },
        {
            "bufferView" : 24,
            "componentType" : 5126,
            "count" : 40,
            "type" : "VEC3"
        },
        {
            "bufferView" : 25,
            "componentType" : 5126,
            "count" : 40,
            "type" : "VEC4"
        }
    ],
    "bufferViews" : [
        {
            "buffer" : 0,
            "byteLength" : 74196,
            "byteOffset" : 0
        },
        {
            "buffer" : 0,
            "byteLength" : 74196,
            "byteOffset" : 74196
        },
        {
            "buffer" : 0,
            "byteLength" : 49464,
            "byteOffset" : 148392
        },
        {
            "buffer" : 0,
            "byteLength" : 49464,
            "byteOffset" : 197856
        },
        {
            "buffer" : 0,
            "byteLength" : 48432,
            "byteOffset" : 247320
        },
        {
            "buffer" : 0,
            "byteLength" : 56232,
            "byteOffset" : 295752
        },
        {
            "buffer" : 0,
            "byteLength" : 56232,
            "byteOffset" : 351984
        },
        {
            "buffer" : 0,
            "byteLength" : 37488,
            "byteOffset" : 408216
        },
        {
            "buffer" : 0,
            "byteLength" : 37488,
            "byteOffset" : 445704
        },
        {
            "buffer" : 0,
            "byteLength" : 30456,
            "byteOffset" : 483192
        },
        {
            "buffer" : 0,
            "byteLength" : 56232,
            "byteOffset" : 513648
        },
        {
            "buffer" : 0,
            "byteLength" : 56232,
            "byteOffset" : 569880
        },
        {
            "buffer" : 0,
            "byteLength" : 37488,
            "byteOffset" : 626112
        },
        {
            "buffer" : 0,
            "byteLength" : 37488,
            "byteOffset" : 663600
        },
        {
            "buffer" : 0,
            "byteLength" : 30456,
            "byteOffset" : 701088
        },
        {
            "buffer" : 0,
            "byteLength" : 29232,
            "byteOffset" : 731544
        },
        {
            "buffer" : 0,
            "byteLength" : 29232,
            "byteOffset" : 760776
        },
        {
            "buffer" : 0,
            "byteLength" : 19488,
            "byteOffset" : 790008
        },
        {
            "buffer" : 0,
            "byteLength" : 19488,
            "byteOffset" : 809496
        },
        {
            "buffer" : 0,
            "byteLength" : 19488,
            "byteOffset" : 828984
        },
        {
            "buffer" : 0,
            "byteLength" : 9936,
            "byteOffset" : 848472
        },
        {
            "buffer" : 0,
            "byteLength" : 800,
            "byteOffset" : 858408
        },
        {
            "buffer" : 0,
            "byteLength" : 2400,
            "byteOffset" : 859208
        },
        {
            "buffer" : 0,
            "byteLength" : 160,
            "byteOffset" : 861608
        },
        {
            "buffer" : 0,
            "byteLength" : 480,
            "byteOffset" : 861768
        },
        {
            "buffer" : 0,
            "byteLength" : 640,
            "byteOffset" : 862248
        }
    ],
    "samplers" : [
        {
            "magFilter" : 9729,
            "minFilter" : 9987
        }
    ],
    "buffers" : [
        {
            "byteLength" : 862888,
            "uri" : "SM_Carriage.bin"
        }
    ]
}
