{
    "asset" : {
        "generator" : "Khronos glTF Blender I/O v3.2.43",
        "version" : "2.0"
    },
    "scene" : 0,
    "scenes" : [
        {
            "name" : "Scene",
            "nodes" : [
                0,
                1
            ]
        }
    ],
    "nodes" : [
        {
            "mesh" : 0,
            "name" : "SM_Train_Rear"
        },
        {
            "mesh" : 1,
            "name" : "SM_Train_Front"
        }
    ],
    "materials" : [
        {
            "name" : "M_Train_Rear",
            "normalTexture" : {
                "index" : 0
            },
            "occlusionTexture" : {
                "index" : 1
            },
            "pbrMetallicRoughness" : {
                "baseColorTexture" : {
                    "index" : 2
                },
                "metallicRoughnessTexture" : {
                    "index" : 1
                }
            }
        },
        {
            "name" : "M_Train_Front",
            "normalTexture" : {
                "index" : 3
            },
            "occlusionTexture" : {
                "index" : 4
            },
            "pbrMetallicRoughness" : {
                "baseColorTexture" : {
                    "index" : 5
                },
                "metallicRoughnessTexture" : {
                    "index" : 4
                }
            }
        }
    ],
    "meshes" : [
        {
            "name" : "Mesh.001",
            "primitives" : [
                {
                    "attributes" : {
                        "POSITION" : 0,
                        "NORMAL" : 1,
                        "TEXCOORD_0" : 2
                    },
                    "indices" : 3,
                    "material" : 0
                }
            ]
        },
        {
            "name" : "Mesh.002",
            "primitives" : [
                {
                    "attributes" : {
                        "POSITION" : 4,
                        "NORMAL" : 5,
                        "TEXCOORD_0" : 6
                    },
                    "indices" : 7,
                    "material" : 1
                }
            ]
        }
    ],
    "textures" : [
        {
            "sampler" : 0,
            "source" : 0
        },
        {
            "sampler" : 0,
            "source" : 1
        },
        {
            "sampler" : 0,
            "source" : 2
        },
        {
            "sampler" : 0,
            "source" : 3
        },
        {
            "sampler" : 0,
            "source" : 4
        },
        {
            "sampler" : 0,
            "source" : 5
        }
    ],
    "images" : [
        {
            "mimeType" : "image/png",
            "name" : "T_Train_Rear_N",
            "uri" : "T_Train_Rear_N.png"
        },
        {
            "mimeType" : "image/png",
            "name" : "T_Train_Rear_ORM",
            "uri" : "T_Train_Rear_ORM.png"
        },
        {
            "mimeType" : "image/png",
            "name" : "T_Train_Rear_D",
            "uri" : "T_Train_Rear_D.png"
        },
        {
            "mimeType" : "image/png",
            "name" : "T_Train_Front_N",
            "uri" : "T_Train_Front_N.png"
        },
        {
            "mimeType" : "image/png",
            "name" : "T_Train_Front_ORM",
            "uri" : "T_Train_Front_ORM.png"
        },
        {
            "mimeType" : "image/png",
            "name" : "T_Train_Front_D",
            "uri" : "T_Train_Front_D.png"
        }
    ],
    "accessors" : [
        {
            "bufferView" : 0,
            "componentType" : 5126,
            "count" : 35088,
            "max" : [
                27.075334548950195,
                7.513779163360596,
                3.5238139629364014
            ],
            "min" : [
                5.134773254394531,
                -1.107081970985746e-06,
                -3.5613598823547363
            ],
            "type" : "VEC3"
        },
        {
            "bufferView" : 1,
            "componentType" : 5126,
            "count" : 35088,
            "type" : "VEC3"
        },
        {
            "bufferView" : 2,
            "componentType" : 5126,
            "count" : 35088,
            "type" : "VEC2"
        },
        {
            "bufferView" : 3,
            "componentType" : 5123,
            "count" : 89328,
            "type" : "SCALAR"
        },
        {
            "bufferView" : 4,
            "componentType" : 5126,
            "count" : 20851,
            "max" : [
                14.751701354980469,
                10.655731201171875,
                3.7031519412994385
            ],
            "min" : [
                -3.9063615798950195,
                -8.18419607639953e-08,
                -3.6460039615631104
            ],
            "type" : "VEC3"
        },
        {
            "bufferView" : 5,
            "componentType" : 5126,
            "count" : 20851,
            "type" : "VEC3"
        },
        {
            "bufferView" : 6,
            "componentType" : 5126,
            "count" : 20851,
            "type" : "VEC2"
        },
        {
            "bufferView" : 7,
            "componentType" : 5123,
            "count" : 57702,
            "type" : "SCALAR"
        }
    ],
    "bufferViews" : [
        {
            "buffer" : 0,
            "byteLength" : 421056,
            "byteOffset" : 0
        },
        {
            "buffer" : 0,
            "byteLength" : 421056,
            "byteOffset" : 421056
        },
        {
            "buffer" : 0,
            "byteLength" : 280704,
            "byteOffset" : 842112
        },
        {
            "buffer" : 0,
            "byteLength" : 178656,
            "byteOffset" : 1122816
        },
        {
            "buffer" : 0,
            "byteLength" : 250212,
            "byteOffset" : 1301472
        },
        {
            "buffer" : 0,
            "byteLength" : 250212,
            "byteOffset" : 1551684
        },
        {
            "buffer" : 0,
            "byteLength" : 166808,
            "byteOffset" : 1801896
        },
        {
            "buffer" : 0,
            "byteLength" : 115404,
            "byteOffset" : 1968704
        }
    ],
    "samplers" : [
        {
            "magFilter" : 9729,
            "minFilter" : 9987
        }
    ],
    "buffers" : [
        {
            "byteLength" : 2084108,
            "uri" : "SM_Train.bin"
        }
    ]
}
