{
    "asset" : {
        "generator" : "Khronos glTF Blender I/O v3.2.43",
        "version" : "2.0"
    },
    "scene" : 0,
    "scenes" : [
        {
            "name" : "Scene",
            "nodes" : [
                1
            ]
        }
    ],
    "nodes" : [
        {
            "mesh" : 0,
            "name" : "SM_TideClock_Glass"
        },
        {
            "children" : [
                0
            ],
            "mesh" : 1,
            "name" : "SM_TideClock"
        }
    ],
    "materials" : [
        {
            "alphaMode" : "BLEND",
            "name" : "M_TideClock_Glass",
            "normalTexture" : {
                "index" : 0
            },
            "pbrMetallicRoughness" : {
                "baseColorFactor" : [
                    1,
                    1,
                    1,
                    0.5
                ],
                "baseColorTexture" : {
                    "index" : 1
                },
                "metallicRoughnessTexture" : {
                    "index" : 2
                }
            }
        },
        {
            "name" : "M_TideClock",
            "normalTexture" : {
                "index" : 3
            },
            "pbrMetallicRoughness" : {
                "baseColorTexture" : {
                    "index" : 4
                },
                "metallicRoughnessTexture" : {
                    "index" : 5
                }
            }
        }
    ],
    "meshes" : [
        {
            "name" : "Mesh.001",
            "primitives" : [
                {
                    "attributes" : {
                        "POSITION" : 0,
                        "NORMAL" : 1,
                        "TEXCOORD_0" : 2
                    },
                    "indices" : 3,
                    "material" : 0
                }
            ]
        },
        {
            "name" : "Mesh",
            "primitives" : [
                {
                    "attributes" : {
                        "POSITION" : 4,
                        "NORMAL" : 5,
                        "TEXCOORD_0" : 6
                    },
                    "indices" : 7,
                    "material" : 1
                }
            ]
        }
    ],
    "textures" : [
        {
            "sampler" : 0,
            "source" : 0
        },
        {
            "sampler" : 0,
            "source" : 1
        },
        {
            "sampler" : 0,
            "source" : 2
        },
        {
            "sampler" : 0,
            "source" : 0
        },
        {
            "sampler" : 0,
            "source" : 1
        },
        {
            "sampler" : 0,
            "source" : 2
        }
    ],
    "images" : [
        {
            "mimeType" : "image/png",
            "name" : "T_TideClock_N",
            "uri" : "T_TideClock_N.png"
        },
        {
            "mimeType" : "image/png",
            "name" : "T_TideClock_D",
            "uri" : "T_TideClock_D.png"
        },
        {
            "mimeType" : "image/png",
            "name" : "T_TideClock_ORM",
            "uri" : "T_TideClock_ORM.png"
        }
    ],
    "accessors" : [
        {
            "bufferView" : 0,
            "componentType" : 5126,
            "count" : 284,
            "max" : [
                -0.03420136123895645,
                1.203052043914795,
                0.2576993405818939
            ],
            "min" : [
                -0.06138357147574425,
                0.71064293384552,
                -0.23470981419086456
            ],
            "type" : "VEC3"
        },
        {
            "bufferView" : 1,
            "componentType" : 5126,
            "count" : 284,
            "type" : "VEC3"
        },
        {
            "bufferView" : 2,
            "componentType" : 5126,
            "count" : 284,
            "type" : "VEC2"
        },
        {
            "bufferView" : 3,
            "componentType" : 5123,
            "count" : 426,
            "type" : "SCALAR"
        },
        {
            "bufferView" : 4,
            "componentType" : 5126,
            "count" : 1752,
            "max" : [
                0.6416084170341492,
                2.5631396770477295,
                0.6431931853294373
            ],
            "min" : [
                -0.6424633860588074,
                -2.8045594291370435e-08,
                -0.6469136476516724
            ],
            "type" : "VEC3"
        },
        {
            "bufferView" : 5,
            "componentType" : 5126,
            "count" : 1752,
            "type" : "VEC3"
        },
        {
            "bufferView" : 6,
            "componentType" : 5126,
            "count" : 1752,
            "type" : "VEC2"
        },
        {
            "bufferView" : 7,
            "componentType" : 5123,
            "count" : 2670,
            "type" : "SCALAR"
        }
    ],
    "bufferViews" : [
        {
            "buffer" : 0,
            "byteLength" : 3408,
            "byteOffset" : 0
        },
        {
            "buffer" : 0,
            "byteLength" : 3408,
            "byteOffset" : 3408
        },
        {
            "buffer" : 0,
            "byteLength" : 2272,
            "byteOffset" : 6816
        },
        {
            "buffer" : 0,
            "byteLength" : 852,
            "byteOffset" : 9088
        },
        {
            "buffer" : 0,
            "byteLength" : 21024,
            "byteOffset" : 9940
        },
        {
            "buffer" : 0,
            "byteLength" : 21024,
            "byteOffset" : 30964
        },
        {
            "buffer" : 0,
            "byteLength" : 14016,
            "byteOffset" : 51988
        },
        {
            "buffer" : 0,
            "byteLength" : 5340,
            "byteOffset" : 66004
        }
    ],
    "samplers" : [
        {
            "magFilter" : 9729,
            "minFilter" : 9987
        }
    ],
    "buffers" : [
        {
            "byteLength" : 71344,
            "uri" : "SM_TideClock.bin"
        }
    ]
}
